<?xml version="1.0" encoding="UTF-8"?>
<svg id="Capa_1" data-name="Capa 1" xmlns="http://www.w3.org/2000/svg" viewBox="0 0 490.66 390.89">
  <defs>
    <style>
      .cls-1 {
        fill: red;
      }
    </style>
  </defs>
  <path class="cls-1" d="m383.33,196.48c-26.1,14.67-55.96,17.13-91.68.48-27.84,13.92-61.44,17.28-92.16-1.44-25.44,17.28-73.44,17.28-94.2-2.03-11.4,14.99-52.68,18.83-75.24,5.87v163.68c0,7.69,3.12,14.65,8.15,19.69,7.97,7.97,17.83,8.15,19.69,8.15,37.54,0,224.45.03,248.64,0,0,0,0-152.16,0-152.16l91.68-.48s.96,152.64.96,152.64h30.72c16.97,0,30.72-13.75,30.72-30.72v-157.44c-21.83,6.61-48.48,10.56-77.28-6.24Zm-167.96,133.82h-123.3v-91.88h123.3v91.88Z"/>
  <path class="cls-1" d="m98.78,0h297.21c6.77,0,13.14,3.17,17.23,8.56l70.82,100.15c6.26,8.85,8.26,20.08,5.22,30.49-12.28,42.04-75.34,65.67-105.27,21.6-10.32,22.72-67.2,37.44-92.4,2.64-28.08,31.44-75.6,27.12-92.16,0-22.32,27.6-68.88,30.48-92.88,1.68-15.93,28.32-95.92,30.94-106.05-27.51-1.57-9.05.59-18.35,5.98-25.79L75.59,16.56C82,7.65,87.79,0,98.78,0Z"/>
</svg>