<?xml version="1.0" encoding="UTF-8"?>
<svg id="Capa_1" data-name="Capa 1" xmlns="http://www.w3.org/2000/svg" viewBox="0 0 473.21 408.9">
  <defs>
    <style>
      .cls-1 {
        fill: red;
      }
    </style>
  </defs>
  <path class="cls-1" d="m392.35,49.14c10.41,8.97,22.15,23.56,34.52,40.75,2.39,2.82,4.16,6.2,5.15,9.89,12.91,47.9-20.85,84.61-61.7,109.87-12.71-13.42-20.24-47.74-19.77-114.3,19.85-6.75,36.15-25.57,41.8-46.21Z"/>
  <path class="cls-1" d="m349.95,82.41c13.96-3.76,34.17-24.1,31.61-44.42-.12-.96-.61-1.83-1.29-2.45l-20.36-18.33-8.69,27.33c-.25.8-.39,1.63-.41,2.48l-.85,35.39Z"/>
  <ellipse class="cls-1" cx="294.78" cy="151.35" rx="22.45" ry="26.11"/>
  <path class="cls-1" d="m215.14,104.44l1.69-22.18c27.45-4.02,54.12-26.12,79.39-69.62,1.51-2.6,3.44-4.9,5.78-6.61,13.63-9.96,29.93-6.86,47.84,4.15-6.49,59.82-60.88,84.23-134.7,94.27Z"/>
  <path class="cls-1" d="m174.83,83.36c11.33,5.67,21.76,6.75,31.21,2.71l.85-22.18c-4.24-15.13-25.42-16.17-29.76-1.16l-2.3,20.63Z"/>
  <path class="cls-1" d="m173.52,96.12l-6.14,33.27c11.32,7.17,21.5,7.81,30.08,4.97l6.46-34.66c-9.96,1.19-20.08.13-30.39-3.58Z"/>
  <path class="cls-1" d="m154.04,176.18l10.06-33.85c8.92,4.73,19.85,6.09,30.18,6.35l-12.07,36.39c-12.52,1.09-22.8-1.6-28.17-8.9Z"/>
  <path class="cls-1" d="m132.86,224.82l16.31-35.93c7.4,5.4,17.61,8.33,27.43,9.7-6.67,13.12-14.01,24.86-22.13,35-9.28.1-17.64-1.13-21.6-8.78Z"/>
  <path class="cls-1" d="m107.76,259.25l18.43-23.11c5.75,5.01,11.28,8.2,16.63,9.94-8.98,8.89-20.49,13.58-35.05,13.17Z"/>
  <path class="cls-1" d="m4.33,328.51c13.02,20.76,82.19,16.33,109.29,1.03,7.38-4.17,15.38-6.85,23.59-8.27,27.29-4.73,62.63-4.33,86.26,4.15-73.42,94.89-253.59,62.23-219.14,3.08Z"/>
  <path class="cls-1" d="m9.32,318.54c30.5,33.67,120.62-8.01,120.62-8.01,14.37-6.16,73.69-7.78,102.48,7.39l96.47-81.78c-11.65-17.34-34.1-32.04-61.36-12.94-44.05,36.07-110.14,69.62-138.94,46.21-11.11,0-27.96.45-39.07.45-34.53,7.86-60.26,25.16-80.2,48.68Z"/>
  <path class="cls-1" d="m338.41,65.47c-27.62,28.8-66.91,46.73-125.88,50.56-3.32,40.63-33.82,122.89-70.95,146.61,32.91,6.09,78.99-16.85,132.73-56.69,29.79-12.31,49.62,2.79,67.21,24.03l18.64-12.32c-14.57-21-23.96-68.67-21.74-152.19Zm-44.24,125.69c-40.1.03-46.89-71.2-1.52-78.41,2.69-.43,5.42-.33,8.08.28,42.52,9.7,35.69,78.1-6.56,78.13Z"/>
  <path class="cls-1" d="m31.72,388.64s87.26,38.82,183.42-36.88c58.43-53.57,113.46-104.96,158.85-128.55,12.71-14.43,73.71-37.89,72.86-115.53,40.67,39.74,40.67,89.8-45.82,139.93-78.72,25.34-119.42,87.77-160.25,114.39-133.02,86.72-209.06,26.65-209.06,26.65Z"/>
</svg>