<?xml version="1.0" encoding="UTF-8"?>
<svg id="Capa_1" data-name="Capa 1" xmlns="http://www.w3.org/2000/svg" viewBox="0 0 491.03 495">
  <defs>
    <style>
      .cls-1 {
        fill: red;
      }
    </style>
  </defs>
  <path class="cls-1" d="m218.65,12.06L13.42,216.61c-5.34,5.32-9.46,11.81-11.64,19.03-9.02,29.95,17.93,53.98,43.34,55.92,4.07.31,7.19,3.72,7.23,7.8l1.48,150.09c.25,25.23,20.77,45.55,46,45.55h78.32c11.1,0,20.07-9.03,20-20.13l-.74-115.2c-.07-11.09,8.9-20.12,19.99-20.13l52.87-.03c11.05,0,20.01,8.95,20.01,20v115.49c0,11.05,8.95,20,20,20h81c25.41,0,46-20.59,46-46v-150.31c0-3.52,3.11-6.2,6.59-5.72,20.12,2.79,58.26-23.58,44.07-61.33-1.49-3.96-5.22-9.62-8.22-12.6L271.9,11.6c-14.38-15.65-39.14-15.44-53.25.46Z"/>
</svg>